<svg xmlns="http://www.w3.org/2000/svg" viewBox="0 0 180.56 49.21" role="img" aria-label="Octave" preserveAspectRatio="xMinYMid meet">
  <title>Octave</title>
  <path fill="#26EB9F" fill-rule="evenodd" d="M16.39,0.5 L13.39,1.45 L8.39,4.31 L4.89,7.68 L2.86,10.68 L1.09,14.68 L0.08,19.68 L0,22.68 L0.9,27.68 L2.01,30.68 L5.21,35.68 L7.39,37.92 L10.39,40.05 L14.39,41.92 L18.39,42.86 L23.39,42.93 L25.39,42.69 L28.39,41.88 L32.39,39.95 L36.35,36.68 L39.48,32.68 L41.66,27.68 L42.39,23.68 L42.41,19.68 L41.83,15.68 L39.75,10.68 L37.7,7.68 L35.39,5.21 L31.39,2.47 L28.39,1.18 L25.39,0.28 L20.39,0 L16.39,0.5 Z M115.39,3.91 L114.78,4.68 L115.24,5.68 L122.21,19.68 L128.61,31.68 L133.39,41.68 L134.39,42.73 L137.39,37.63 L143.26,25.68 L149.72,13.68 L150.97,10.68 L150.39,10.24 L149.39,10.17 L145.39,10.18 L144.2,10.68 L137.65,23.68 L134.39,28.94 L133.27,27.68 L121.55,4.68 L120.39,3.93 L115.39,3.91 Z M19.57,6.68 L22.39,6.58 L25.39,7.25 L28.39,8.47 L29.39,9.18 L31.39,10.84 L33.74,13.68 L34.76,15.68 L35.75,18.68 L35.99,21.68 L35.7,24.68 L34.62,27.68 L33.39,29.68 L31.39,32.02 L28.39,34.26 L26.39,35.23 L23.39,36.14 L18.39,36 L15.39,34.94 L13.39,33.84 L11.39,32.29 L9.11,29.68 L7.95,27.68 L7.07,25.68 L6.44,21.68 L7.27,16.68 L8.13,14.68 L10.2,11.68 L11.39,10.44 L14.39,8.32 L16.39,7.43 L19.57,6.68 Z M56.39,10.59 L54.39,11.38 L50.97,13.68 L48.95,15.68 L46.98,18.68 L46.04,20.68 L45.16,24.68 L45.21,28.68 L45.91,31.68 L47.31,34.68 L49.39,37.65 L53.39,40.94 L55.39,41.9 L59.39,42.89 L63.39,42.95 L67.39,42.03 L71.39,39.9 L73.77,37.68 L75.94,34.68 L76.38,33.68 L76.09,32.68 L71.39,30.73 L70.39,30.84 L68.39,33.27 L66.39,34.79 L63.39,36.11 L61.39,36.23 L59.39,36.04 L57.39,35.18 L55.39,33.96 L54.12,32.68 L52.34,29.68 L52.03,28.68 L51.72,26.68 L52.39,22.84 L53.7,20.68 L56.39,18.12 L58.39,17.14 L62.39,16.48 L63.05,15.68 L64.62,10.68 L63.39,9.98 L59.39,10.04 L56.39,10.59 Z M70.39,10.57 L68.77,15.68 L69.39,16.83 L81.39,16.83 L82.46,17.68 L82.48,48.68 L83.39,49.21 L88.39,49.2 L88.93,48.68 L88.92,17.68 L89.39,16.88 L90.39,16.8 L100.39,16.82 L101.13,15.68 L101.06,10.68 L100.39,10.17 L71.39,10.17 L70.39,10.57 Z M111.39,10.27 L110.39,11.79 L105.54,21.68 L100.08,31.68 L95.03,41.68 L95.15,42.68 L96.39,42.95 L100.39,42.95 L101.39,42.6 L103.95,37.68 L104.39,37.2 L105.39,36.89 L118.39,37.03 L119.12,37.68 L121.06,41.68 L121.98,42.68 L123.39,42.95 L127.39,42.94 L127.95,42.68 L128.06,41.68 L127.65,40.68 L121.21,28.68 L112.64,11.68 L111.39,10.27 Z M154.39,10.26 L153.85,10.68 L153.77,11.68 L153.75,41.68 L154.19,42.68 L155.39,42.95 L179.39,42.95 L179.98,42.68 L180.56,41.68 L180.53,37.68 L180.34,36.68 L179.39,36.26 L161.39,36.28 L160.57,35.68 L160.54,30.68 L160.92,29.68 L161.39,29.34 L168.39,29.36 L169.32,28.68 L169.45,27.68 L169.37,23.68 L168.39,23.08 L161.39,23.1 L160.77,22.68 L160.53,17.68 L161.39,16.8 L173.82,16.68 L174.64,15.68 L174.55,10.68 L173.39,10.17 L154.39,10.26 Z M111.01,23.68 L111.39,23.24 L112.58,24.68 L114.62,28.68 L114.82,29.68 L114.39,30.23 L109.39,30.31 L108.23,29.68 L111.01,23.68 Z"/>
</svg>
